<svg width="643" height="335" viewBox="0 0 643 335" fill="none" xmlns="http://www.w3.org/2000/svg">
<path d="M251.561 316.259C250.946 315.956 190.862 288.101 132.881 257.854L0 253.5V245.5C0 170.995 5.5 22.982 5.5 21.5V16H16.5C167.017 11.8908 612 0.5 612 0.5H619V9.5C624.434 84.0719 642.846 260.681 643 262.5V271.5L222.5 261C243.827 283.87 267.908 309.764 268.113 310L291 335L251.561 316.259Z" fill="#2E2E2E"/>
<path d="M201.999 254.829L630 266.909C630 266.909 614.632 85.615 608.997 10C608.997 10 162.913 22.0121 12.92 26.1286C12.92 26.1286 10 173.951 10 249.431L135.096 252.805C194.571 284.05 256.863 313 256.863 313C256.863 313 229.2 284.725 201.999 254.829Z" fill="#FEFEFE"/>
</svg>
