<svg width="360" height="233" viewBox="0 0 360 233" fill="none" xmlns="http://www.w3.org/2000/svg">
<path d="M282.374 8.23144C258.198 -2.7659 229.982 10.9392 213.819 38.0406C206.107 23.2839 195.371 12.0256 182.983 5.70472C170.595 -0.616144 157.119 -1.71241 144.276 2.55606C131.433 6.82453 119.807 16.2638 110.884 29.6674C101.961 43.071 96.1471 59.8299 94.1845 77.8021C80.8361 72.4341 66.2617 70.6764 53.1551 77.042C40.0485 83.4077 28.7551 98.9892 26.9765 117.967C17.22 115.188 7.22165 112.409 -2.65578 114.309C-12.5332 116.21 -22.4279 123.81 -26.3305 136.399C-32.1845 155.14 -21.8235 177.776 -8.00895 184.688C5.80564 191.6 21.5197 186.445 34.799 177.562C40.8983 188.216 48.4847 197.085 57.1119 203.648C65.7392 210.21 75.2334 214.335 85.0361 215.777C94.8389 217.22 104.752 215.953 114.194 212.049C123.635 208.146 132.414 201.686 140.014 193.049C148.076 205.499 157.997 215.41 169.099 222.104C180.2 228.798 192.222 232.118 204.341 231.836C216.461 231.554 228.394 227.677 239.325 220.471C250.256 213.265 259.927 202.898 267.679 190.079C284.101 207.704 321.814 228.677 339.445 203.523C343.12 198.119 345.568 191.356 346.488 184.065C347.409 176.773 346.761 169.271 344.626 162.479C350.076 162.547 355.414 160.355 359.945 156.189C364.476 152.024 367.99 146.078 370.029 139.125C372.068 132.173 372.537 124.537 371.376 117.213C370.214 109.889 367.476 103.216 363.517 98.0629C347.648 77.3508 330.708 91.626 319.069 110.177C319.224 69.085 316.461 22.8866 282.374 8.23144Z" fill="white"/>
<path d="M94.1845 77.8021C80.8361 72.4341 66.2617 70.6764 53.1551 77.042C40.0485 83.4077 28.7551 98.9892 26.9765 117.967C17.22 115.188 7.22165 112.409 -2.65578 114.309C-12.5332 116.21 -22.4279 123.81 -26.3305 136.399C-32.1845 155.14 -21.8235 177.776 -8.00895 184.688C5.80564 191.6 21.5197 186.445 34.799 177.562C40.8983 188.216 48.4847 197.085 57.1119 203.648C65.7392 210.21 75.2334 214.335 85.0361 215.777C94.8389 217.22 104.752 215.953 114.194 212.05C123.635 208.146 132.414 201.686 140.014 193.049C148.076 205.499 157.997 215.41 169.099 222.104C180.2 228.798 192.222 232.118 204.341 231.836C216.461 231.554 228.394 227.677 239.325 220.471C250.256 213.265 259.927 202.898 267.679 190.08C284.101 207.704 321.814 228.677 339.445 203.523C343.12 198.119 345.568 191.356 346.488 184.065C347.409 176.774 346.761 169.271 344.626 162.479C350.076 162.547 355.414 160.355 359.945 156.19C364.476 152.024 367.99 146.078 370.029 139.125C372.068 132.173 372.537 124.537 371.376 117.213C370.214 109.889 367.476 103.216 363.517 98.0629C347.648 77.3508 330.708 91.626 319.069 110.177C319.207 78.3247 317.566 43.4087 300.937 22.4829C302.439 45.5464 299.452 69.3463 290.334 88.6569C279.732 111.055 260.046 126.067 240.809 122.243C233.211 120.723 225.648 116.138 220.864 107.849C214.561 97.0178 214.872 81.2225 208.621 70.7002C203.613 62.2681 195.031 58.4677 188.331 53.4797C195.929 59.1328 199.227 72.7429 197.19 84.3578C195.152 95.9727 188.676 105.26 181.113 111.008C175.487 115.272 169.234 117.732 162.82 118.205C156.406 118.678 149.997 117.151 144.072 113.739C138.191 110.163 133.049 104.63 129.109 97.6392C125.169 90.6483 122.555 82.4192 121.503 73.693C119.448 54.6911 125.647 35.3092 135.145 21.224C140.835 13.0417 147.355 6.03351 154.502 0.416931C151.063 0.746232 147.649 1.46923 144.297 2.5784C131.553 7.11654 120.038 16.6362 111.145 29.9861C102.251 43.336 96.3604 59.9442 94.1845 77.8021Z" fill="#F5FBFF"/>
<path d="M267.68 190.08C284.102 207.704 321.816 228.677 339.446 203.523C343.121 198.119 345.569 191.356 346.489 184.065C347.41 176.774 346.762 169.271 344.627 162.479C350.077 162.547 355.415 160.355 359.946 156.19C364.477 152.024 367.991 146.078 370.03 139.125C372.069 132.173 372.538 124.537 371.377 117.213C370.215 109.889 367.477 103.216 363.518 98.0629C364.397 107.823 362.942 117.711 359.374 126.233C355.92 135.283 349.272 142.361 341.847 143.026C334.421 143.691 326.651 136.922 325.01 126.946C322.783 132.813 325.01 140.057 327.808 145.378C330.605 150.698 334.387 155.52 335.682 162.004C337.651 171.671 333.213 182.099 327.048 187.372C320.883 192.645 313.233 193.785 306.015 194.212C292.304 194.877 280.545 196.374 267.68 190.08Z" fill="#DFF2FD"/>
<path d="M204.39 231.836C192.283 232.009 180.287 228.641 169.197 221.954C158.107 215.267 148.178 205.414 140.066 193.049C132.465 201.697 123.682 208.167 114.236 212.076C104.789 215.986 94.8693 217.257 85.0604 215.814C75.2514 214.371 65.7514 210.243 57.1196 203.674C48.4879 197.104 40.8987 188.226 34.799 177.562C21.5197 186.493 5.80564 191.813 -8.00895 184.688C-21.8235 177.562 -32.1845 155.092 -26.3305 136.399C-25.8125 152.622 -13.5866 165.71 -2.15499 170.056C9.27658 174.403 21.3643 171.743 32.8649 168.014C30.3913 158.334 29.8311 147.924 31.2417 137.848C40.1003 154.807 50.7203 171.41 65.0357 178.393C73.4971 182.503 82.632 182.93 91.5942 183.144C102.56 183.334 113.715 183.144 124.197 178.655C134.678 174.165 144.521 164.973 149.132 151.434C142.121 171.861 163.603 198.725 173.722 208.678C183.841 218.63 195.67 226.041 207.274 233" fill="#DFF2FD"/>
</svg>
