<svg width="321" height="155" viewBox="0 0 321 155" fill="none" xmlns="http://www.w3.org/2000/svg">
<path d="M196.164 141.866C196.467 141.733 226.048 129.432 254.594 116.075L321 114.395V110.141C321 77.2398 319.561 12.3156 319.561 11.6611V7.45179L312.444 7.2882C238.34 5.4736 18.7532 0.178478 18.7532 0.178478L11.1812 0L10.8278 4.46214C8.15242 37.3928 0.53003 116.864 0.45431 117.667L1.19392e-05 122.56L205.124 117.384C194.624 127.483 185.588 135.798 185.487 135.902L164.74 155L196.164 141.866Z" fill="#8F3EB0"/>
<path d="M220.549 114.466L9.99999 119.769C9.99999 119.769 17.5601 40.1908 20.3322 7C20.3322 7 239.777 12.2726 313.564 14.0796C313.564 14.0796 315 78.9652 315 112.097L253.461 113.578C224.203 127.292 193.559 140 193.559 140C193.559 140 207.168 127.589 220.549 114.466Z" fill="#FEFEFE"/>
</svg>
